<svg xmlns="http://www.w3.org/2000/svg" viewBox="0 0 500 400">
  <defs>
    <marker id="arrowhead" markerWidth="13" markerHeight="9" refX="12" refY="4.5" orient="auto">
      <polygon points="0 0, 13 4.5, 0 9" fill="#333" />
    </marker>
    <marker id="arrowhead_red" markerWidth="13" markerHeight="9" refX="12" refY="4.5" orient="auto">
      <polygon points="0 0, 13 4.5, 0 9" fill="#d32f2f" />
    </marker>
  
    <marker id="arrowhead_blue" markerWidth="13" markerHeight="9" refX="12" refY="4.5" orient="auto">
      <polygon points="0 0, 13 4.5, 0 9" fill="#0288d1" />
    </marker></defs>

  <!-- Ground -->
  <line x1="50" y1="350" x2="450" y2="350" stroke="#333" stroke-width="2" />
  
  <!-- Banked Road (Incline) -->
  <line x1="50" y1="350" x2="450" y2="150" stroke="#333" stroke-width="3" />
  
  <!-- Angle Theta -->
  <path d="M 100,350 A 50,50 0 0 0 95,327" stroke="#333" fill="none" />
  <text x="110" y="340" font-family="Arial, sans-serif" font-style="italic" font-size="18">θ</text>

  <!-- Car (Block) -->
  <g transform="translate(250, 250) rotate(-26.5)">
    <rect x="-40" y="-20" width="80" height="40" fill="#ddd" stroke="#333" stroke-width="2" />
  </g>
  
  <!-- Forces Start Point (Center of Mass) -->
  <!-- Calculated approx center based on drawing: x=250, y=250 is on line. Center is slightly above. -->
  <!-- Let's say COM is at 250, 230 -->
  
  <g transform="translate(250, 230)">
      
    <!-- mg (Gravity) - Straight Down -->
    <line x1="0" y1="0" x2="0" y2="100" stroke="#d32f2f" stroke-width="2" marker-end="url(#arrowhead_red)" />
    <text x="5" y="100" font-family="Arial, sans-serif" font-style="italic" font-size="18" fill="#d32f2f">mg</text>
    
    <!-- Normal Force (N) - Perpendicular to Incline -->
    <!-- Incline is -26.5 deg relative to x axis. Pearl is +63.5 deg (from neg x axis) or 90+26.5 from vertical -->
    <!-- Just drawing it visually perp to line -->
    <line x1="0" y1="0" x2="-45" y2="-90" stroke="#0288d1" stroke-width="2" marker-end="url(#arrowhead_blue)" />
    <text x="-60" y="-95" font-family="Arial, sans-serif" font-style="italic" font-size="18" fill="#0288d1">N</text>
    
    <!-- Vertical Component of N (Dashed) -->
    <line x1="0" y1="0" x2="0" y2="-90" stroke="#999" stroke-width="1" stroke-dasharray="4,4" />
    <text x="5" y="-70" font-family="Arial, sans-serif" font-style="italic" font-size="16" fill="#555">N cosθ</text>
    
    <!-- Horizontal Component of N (Dashed) -->
    <line x1="0" y1="0" x2="-45" y2="0" stroke="#999" stroke-width="1" stroke-dasharray="4,4" />
    <text x="-100" y="5" font-family="Arial, sans-serif" font-style="italic" font-size="16" fill="#555">N sinθ</text>

  </g>

</svg>
