<svg xmlns="http://www.w3.org/2000/svg" viewBox="0 0 500 300">
  <defs>
    <marker id="arrowhead" markerWidth="13" markerHeight="9" refX="12" refY="4.5" orient="auto">
      <polygon points="0 0, 13 4.5, 0 9" fill="#333" />
    </marker>
  </defs>

  <!-- Axes -->
  <line x1="50" y1="250" x2="450" y2="250" stroke="#333" stroke-width="2" marker-end="url(#arrowhead)" />
  <line x1="50" y1="250" x2="50" y2="20" stroke="#333" stroke-width="2" marker-end="url(#arrowhead)" />
  <text x="440" y="270" font-family="Arial, sans-serif" font-style="italic" font-size="20">x</text>
  <text x="30" y="30" font-family="Arial, sans-serif" font-style="italic" font-size="20">y</text>

  <!-- Trajectory (Parabola) -->
  <path d="M 50,250 Q 225,50 400,250" stroke="#2196f3" stroke-width="3" fill="none" />

  <!-- Initial Velocity Vector -->
  <line x1="50" y1="250" x2="100" y2="200" stroke="#d32f2f" stroke-width="2" marker-end="url(#arrowhead)" />
  <!-- Label u with vector arrow -->
  <g transform="translate(85, 190)">
    <path d="M 0,-5 L 15,-5 M 12,-8 L 15,-5 L 12,-2" stroke="#d32f2f" stroke-width="1" fill="none" />
    <text x="0" y="10" font-family="Arial, sans-serif" font-style="italic" font-size="20" fill="#d32f2f">u</text>
  </g>

  <!-- Angle Theta -->
  <path d="M 90,250 A 40,40 0 0 0 85,215" stroke="#333" fill="none" stroke-width="1"/>
  <text x="100" y="240" font-family="Arial, sans-serif" font-style="italic" font-size="18">θ</text>

  <!-- Max Height (H) -->
  <line x1="225" y1="150" x2="225" y2="250" stroke="#666" stroke-width="1" stroke-dasharray="5,5" />
  <text x="230" y="200" font-family="Arial, sans-serif" font-style="italic" font-size="20">H<tspan baseline-shift="sub" font-size="14" font-style="normal">max</tspan></text>

  <!-- Range (R) -->
  <line x1="50" y1="270" x2="400" y2="270" stroke="#666" stroke-width="1" />
  <line x1="50" y1="265" x2="50" y2="275" stroke="#666" stroke-width="1" />
  <line x1="400" y1="265" x2="400" y2="275" stroke="#666" stroke-width="1" />
  <text x="210" y="290" font-family="Arial, sans-serif" font-size="20">Range (<tspan font-style="italic">R</tspan>)</text>

</svg>
