<svg xmlns="http://www.w3.org/2000/svg" viewBox="0 0 800 500">
<defs>

        <marker id="arrowhead" markerWidth="10" markerHeight="7" refX="9" refY="3.5" orient="auto">
            <polygon points="0 0, 10 3.5, 0 7" fill="#333" />
        </marker>
        <marker id="arrowhead_red" markerWidth="10" markerHeight="7" refX="9" refY="3.5" orient="auto">
            <polygon points="0 0, 10 3.5, 0 7" fill="#d32f2f" />
        </marker>
        <marker id="arrowhead_blue" markerWidth="10" markerHeight="7" refX="9" refY="3.5" orient="auto">
            <polygon points="0 0, 10 3.5, 0 7" fill="#1976D2" />
        </marker>
        
</defs>
<rect width="100%" height="100%" fill="#fff" />
<line x1="100" y1="250" x2="700" y2="250" stroke="#333" stroke-width="2"   />
<path d="M 100 250 L 100 250.0 L 110 230.1330669204939 L 120 211.05816576913494 L 130 193.53575266049646 L 140 178.26439091004772 L 150 165.85290151921035 L 160 156.7960914032774 L 170 151.45502700115398 L 180 150.0426396958495 L 190 152.61523691218048 L 200 159.0702573174318 L 210 169.150359618041 L 220 182.45368194488492 L 230 198.44986281785359 L 240 216.5011849844095 L 250 235.88799919401328 L 260 255.837414342758 L 270 275.55411020268315 L 280 294.2520443294852 L 290 311.1857890942719 L 300 325.6802495307928 L 310 337.1575772413588 L 320 345.1602073889516 L 330 349.36910036334643 L 340 349.61646088358407 L 350 345.89242746631385 L 360 338.3454655720153 L 370 327.2764487555987 L 380 313.12666378723213 L 390 296.46021794137573 L 400 277.9415498198926 L 410 258.30894028174964 L 420 238.34507951495064 L 430 218.8458636486622 L 440 200.58866488613918 L 450 184.3013401281211 L 460 170.63321361508468 L 470 160.1291904188373 L 480 153.20803279685137 L 490 150.1456654625395 L 500 151.06417533766182 L 510 155.92694433202269 L 520 164.54010919117195 L 530 176.56029021258865 L 540 191.50828071082384 L 550 208.78815147582435 L 560 227.71100858997522 L 570 247.52245745466422 L 580 267.43267812229794 L 590 286.6479129251928 L 600 304.402111088937 L 610 319.9874687593542 L 620 332.78264690856537 L 630 342.2775421612807 L 640 348.0936230066492 L 650 349.99902065507035 L 660 347.91777291513176 L 670 341.93285256646755 L 680 332.28285949687086 L 690 319.35250847771226 " fill="none" stroke="blue" stroke-width="2" />
<text x="400" y="100" font-family="Arial, sans-serif" font-size="20" fill="#333" text-anchor="middle" font-weight="normal" >V = V0 sin(wt)</text>
</svg>