<svg xmlns="http://www.w3.org/2000/svg" viewBox="0 0 800 500">
<defs>

        <marker id="arrowhead" markerWidth="10" markerHeight="7" refX="9" refY="3.5" orient="auto">
            <polygon points="0 0, 10 3.5, 0 7" fill="#333" />
        </marker>
        <marker id="arrowhead_red" markerWidth="10" markerHeight="7" refX="9" refY="3.5" orient="auto">
            <polygon points="0 0, 10 3.5, 0 7" fill="#d32f2f" />
        </marker>
        <marker id="arrowhead_blue" markerWidth="10" markerHeight="7" refX="9" refY="3.5" orient="auto">
            <polygon points="0 0, 10 3.5, 0 7" fill="#1976D2" />
        </marker>
        
</defs>
<rect width="100%" height="100%" fill="#fff" />
<path d="M 200 250 Q 250 200 300 250 Q 350 300 400 250 Q 450 200 500 250" fill="none" stroke="green" stroke-width="2" />
<line x1="500" y1="250" x2="520" y2="240" stroke="green" stroke-width="2"  marker-end="url(#arrowhead)" />
<line x1="200" y1="150" x2="600" y2="150" stroke="#1976D2" stroke-width="2"  marker-end="url(#arrowhead_blue)" />
<line x1="200" y1="200" x2="600" y2="200" stroke="#1976D2" stroke-width="2"  marker-end="url(#arrowhead_blue)" />
<line x1="200" y1="250" x2="600" y2="250" stroke="#1976D2" stroke-width="2"  marker-end="url(#arrowhead_blue)" />
<line x1="200" y1="300" x2="600" y2="300" stroke="#1976D2" stroke-width="2"  marker-end="url(#arrowhead_blue)" />
<line x1="200" y1="350" x2="600" y2="350" stroke="#1976D2" stroke-width="2"  marker-end="url(#arrowhead_blue)" />
<text x="400" y="120" font-family="Arial, sans-serif" font-size="20" fill="#333" text-anchor="middle" font-weight="bold" >Uniform B Field</text>
</svg>