<svg xmlns="http://www.w3.org/2000/svg" viewBox="0 0 800 500">
<defs>

        <marker id="arrowhead" markerWidth="10" markerHeight="7" refX="9" refY="3.5" orient="auto">
            <polygon points="0 0, 10 3.5, 0 7" fill="#333" />
        </marker>
        <marker id="arrowhead_red" markerWidth="10" markerHeight="7" refX="9" refY="3.5" orient="auto">
            <polygon points="0 0, 10 3.5, 0 7" fill="#d32f2f" />
        </marker>
        <marker id="arrowhead_blue" markerWidth="10" markerHeight="7" refX="9" refY="3.5" orient="auto">
            <polygon points="0 0, 10 3.5, 0 7" fill="#1976D2" />
        </marker>
        
</defs>
<rect width="100%" height="100%" fill="#fff" />
<line x1="250" y1="150" x2="370.0" y2="150.0" stroke="#333" stroke-width="2"   />
<path d="M 370.0 150.0 Q 380.0 130.0 390.0 150.0 Q 400.0 130.0 410.0 150.0 Q 420.0 130.0 430.0 150.0" fill="none" stroke="#333" stroke-width="2" />
<line x1="430.0" y1="150.0" x2="550" y2="150" stroke="#333" stroke-width="2"   />
<text x="400.0" y="120.0" font-family="Arial, sans-serif" font-size="18" fill="#333" text-anchor="middle" font-weight="normal" >L</text>
<line x1="250" y1="350" x2="390.0" y2="350.0" stroke="#333" stroke-width="2"   />
<line x1="390.0" y1="370.0" x2="390.0" y2="330.0" stroke="#333" stroke-width="3"   />
<line x1="410.0" y1="370.0" x2="410.0" y2="330.0" stroke="#333" stroke-width="3"   />
<line x1="410.0" y1="350.0" x2="550" y2="350" stroke="#333" stroke-width="2"   />
<text x="400.0" y="320.0" font-family="Arial, sans-serif" font-size="18" fill="#333" text-anchor="middle" font-weight="normal" >C</text>
<line x1="250" y1="150" x2="250" y2="350" stroke="#333" stroke-width="2"   />
<line x1="550" y1="150" x2="550" y2="350" stroke="#333" stroke-width="2"   />
</svg>