<svg xmlns="http://www.w3.org/2000/svg" viewBox="0 0 800 500">
<defs>

        <marker id="arrowhead" markerWidth="10" markerHeight="7" refX="9" refY="3.5" orient="auto">
            <polygon points="0 0, 10 3.5, 0 7" fill="#333" />
        </marker>
        <marker id="arrowhead_red" markerWidth="10" markerHeight="7" refX="9" refY="3.5" orient="auto">
            <polygon points="0 0, 10 3.5, 0 7" fill="#d32f2f" />
        </marker>
        <marker id="arrowhead_blue" markerWidth="10" markerHeight="7" refX="9" refY="3.5" orient="auto">
            <polygon points="0 0, 10 3.5, 0 7" fill="#1976D2" />
        </marker>
        
</defs>
<rect width="100%" height="100%" fill="#fff" />
<path d="M 150 200 L 170.0 200.0 L 176.0 210.0 L 182.0 190.0 L 188.0 210.0 L 194.0 190.0 L 200.0 210.0 L 206.0 190.0 L 212.0 210.0 L 218.0 190.0 L 224.0 210.0 L 230.0 190.0 L 250 200" fill="none" stroke="#333" stroke-width="2" />
<text x="200.0" y="180.0" font-family="Arial, sans-serif" font-size="18" fill="#333" text-anchor="middle" font-weight="normal" >R</text>
<line x1="300" y1="200" x2="320.0" y2="200.0" stroke="#333" stroke-width="2"   />
<path d="M 320.0 200.0 Q 330.0 180.0 340.0 200.0 Q 350.0 180.0 360.0 200.0 Q 370.0 180.0 380.0 200.0" fill="none" stroke="#333" stroke-width="2" />
<line x1="380.0" y1="200.0" x2="400" y2="200" stroke="#333" stroke-width="2"   />
<text x="350.0" y="170.0" font-family="Arial, sans-serif" font-size="18" fill="#333" text-anchor="middle" font-weight="normal" >L</text>
<line x1="450" y1="200" x2="490.0" y2="200.0" stroke="#333" stroke-width="2"   />
<line x1="490.0" y1="220.0" x2="490.0" y2="180.0" stroke="#333" stroke-width="3"   />
<line x1="510.0" y1="220.0" x2="510.0" y2="180.0" stroke="#333" stroke-width="3"   />
<line x1="510.0" y1="200.0" x2="550" y2="200" stroke="#333" stroke-width="2"   />
<text x="500.0" y="170.0" font-family="Arial, sans-serif" font-size="18" fill="#333" text-anchor="middle" font-weight="normal" >C</text>
<line x1="250" y1="200" x2="300" y2="200" stroke="#333" stroke-width="2"   />
<line x1="400" y1="200" x2="450" y2="200" stroke="#333" stroke-width="2"   />
<line x1="550" y1="200" x2="650" y2="200" stroke="#333" stroke-width="2"   />
<line x1="650" y1="200" x2="650" y2="350" stroke="#333" stroke-width="2"   />
<line x1="150" y1="200" x2="150" y2="350" stroke="#333" stroke-width="2"   />
<circle cx="400" cy="350" r="20" fill="none" stroke="#333" stroke-width="2" />
<path d="M 390 350 Q 395 340 400 350 Q 405 360 410 350" fill="none" stroke="#333" stroke-width="2" />
<text x="430" y="340" font-family="Arial, sans-serif" font-size="16" fill="#333" text-anchor="middle" font-weight="normal" >V = V0 sin wt</text>
<line x1="150" y1="350" x2="350" y2="350" stroke="#333" stroke-width="2"   />
<line x1="450" y1="350" x2="650" y2="350" stroke="#333" stroke-width="2"   />
</svg>