<svg xmlns="http://www.w3.org/2000/svg" viewBox="0 0 800 500">
<defs>

        <marker id="arrowhead" markerWidth="10" markerHeight="7" refX="9" refY="3.5" orient="auto">
            <polygon points="0 0, 10 3.5, 0 7" fill="#333" />
        </marker>
        <marker id="arrowhead_red" markerWidth="10" markerHeight="7" refX="9" refY="3.5" orient="auto">
            <polygon points="0 0, 10 3.5, 0 7" fill="#d32f2f" />
        </marker>
        <marker id="arrowhead_blue" markerWidth="10" markerHeight="7" refX="9" refY="3.5" orient="auto">
            <polygon points="0 0, 10 3.5, 0 7" fill="#1976D2" />
        </marker>
        
</defs>
<rect width="100%" height="100%" fill="#fff" />
<path d="M 400 150 Q 370 250 400 350" fill="none" stroke="#333" stroke-width="3" />
<line x1="400" y1="150" x2="405" y2="155" stroke="#333" stroke-width="2"   />
<line x1="400" y1="170" x2="405" y2="175" stroke="#333" stroke-width="2"   />
<line x1="400" y1="190" x2="405" y2="195" stroke="#333" stroke-width="2"   />
<line x1="400" y1="210" x2="405" y2="215" stroke="#333" stroke-width="2"   />
<line x1="400" y1="230" x2="405" y2="235" stroke="#333" stroke-width="2"   />
<line x1="400" y1="250" x2="405" y2="255" stroke="#333" stroke-width="2"   />
<line x1="400" y1="270" x2="405" y2="275" stroke="#333" stroke-width="2"   />
<line x1="400" y1="290" x2="405" y2="295" stroke="#333" stroke-width="2"   />
<line x1="400" y1="310" x2="405" y2="315" stroke="#333" stroke-width="2"   />
<line x1="400" y1="330" x2="405" y2="335" stroke="#333" stroke-width="2"   />
<line x1="100" y1="250" x2="700" y2="250" stroke="#333" stroke-width="2"   />
<line x1="200" y1="200" x2="395" y2="230" stroke="red" stroke-width="2"  marker-end="url(#arrowhead_red)" />
<line x1="395" y1="230" x2="200" y2="300" stroke="red" stroke-width="2"  marker-end="url(#arrowhead_red)" />
</svg>