<svg xmlns="http://www.w3.org/2000/svg" viewBox="0 0 800 500">
<defs>

        <marker id="arrowhead" markerWidth="10" markerHeight="7" refX="9" refY="3.5" orient="auto">
            <polygon points="0 0, 10 3.5, 0 7" fill="#333" />
        </marker>
        <marker id="arrowhead_red" markerWidth="10" markerHeight="7" refX="9" refY="3.5" orient="auto">
            <polygon points="0 0, 10 3.5, 0 7" fill="#d32f2f" />
        </marker>
        <marker id="arrowhead_blue" markerWidth="10" markerHeight="7" refX="9" refY="3.5" orient="auto">
            <polygon points="0 0, 10 3.5, 0 7" fill="#1976D2" />
        </marker>
        
</defs>
<rect width="100%" height="100%" fill="#fff" />
<line x1="100" y1="250" x2="700" y2="250" stroke="#333" stroke-width="2"   />
<line x1="100" y1="50" x2="100" y2="450" stroke="#333" stroke-width="2"   />
<path d="M 100 250 L 100 250.0 L 110 230.20768325963817 L 120 211.64595691166375 L 130 195.46889919813327 L 140 182.6823212153683 L 150 174.0812304515531 L 160 170.20040107167563 L 170 171.28112425008504 L 180 177.25620585394546 L 190 187.7541442489663 L 200 202.12222847168348 L 210 219.46712063581347 L 220 238.71039935521063 L 230 258.6556107624087 L 240 278.06265821516956 L 250 295.7249054993875 L 260 310.54419962463425 L 270 321.5991486582867 L 280 328.20240941320776 L 290 329.94342311803024 L 300 326.7139419730511 L 310 318.7147594741274 L 320 306.4432260456314 L 330 290.66232619994065 L 340 272.35323985591407 L 350 252.65433732380455 L 360 232.79040095297475 L 370 213.9964740975506 L 380 197.4410721024969 L 390 184.15352967907955 L 400 174.9600018580209 L 410 170.4320976711059 L 420 170.85134027012947 L 430 176.1916631808528 L 440 186.12103099012077 L 450 200.02208369966462 L 460 217.03052118065946 L 470 236.0888411695653 L 480 256.0120896369447 L 490 275.5615354897819 L 500 293.5216888711496 L 510 308.7758744323836 L 520 320.3756607977336 L 530 327.5998294336543 L 540 329.9992165240563 L 550 327.42463980090093 L 560 320.0361739750743 L 570 308.2931980661736 L 580 292.9258334400348 L 590 274.8895483984902 L 600 255.30575178809605 L 610 235.39206922950927 L 620 216.38663705386872 L 630 199.47112098254092 L 640 185.69724587587032 L 650 175.92140457530982 L 660 170.75141154441036 L 670 170.50871190937897 L 680 175.20839555802536 L 690 184.55825892362446 " fill="none" stroke="red" stroke-width="2" />
<path d="M 100 250 L 100.0 250.0 L 116.18509898136307 262.37019796272614 L 131.98563846510507 273.97127693021014 L 147.04096900058335 284.0819380011667 L 161.0367746201974 292.0735492403948 L 173.72461548388966 297.44923096777933 L 184.93737466510137 299.87474933020275 L 194.59964867184843 299.19929734369686 L 202.73243567064205 295.4648713412841 L 209.45182992219804 288.9036598443961 L 214.9618036025989 279.9236072051978 L 219.5415248013083 269.0830496026166 L 223.52800020149667 257.05600040299333 L 227.2951216367473 244.5902432734946 L 231.23041930775952 232.460838615519 L 235.7109670314414 221.42193406288283 L 241.0799376173018 212.1598752346036 L 247.6252660442854 205.25053208857082 L 255.5617470583726 201.12349411674515 L 265.01768027561553 200.0353605512311 L 276.02689313342154 202.05378626684308 L 288.5266376643352 207.0532753286704 L 302.3614918607402 214.7229837214804 L 317.29302306251856 224.5860461250371 L 333.01461254502686 236.0292250900537 L 349.17051958631106 248.34103917262215 L 365.3779997021954 260.75599940439076 L 381.25110184451546 272.50220368903086 L 396.4246649679697 282.84932993593947 L 410.57702197528766 291.15404395057527 L 423.44999941936845 296.89999883873696 L 434.8649694777794 299.7299389555588 L 444.7339561655846 299.4679123311691 L 453.0651052559835 296.130210511967 L 459.96217781558727 289.92435563117454 L 465.6180988438548 281.2361976877096 L 470.3029621310439 270.60592426208785 L 474.34723713451086 258.69447426902167 L 478.12122198845475 246.24244397690953 L 482.0120201594432 234.0240403188863 L 486.3994722277657 222.7989444555315 L 491.6325392398801 213.26507847976023 L 498.0076060007083 206.0152120014165 L 505.75005330198303 201.50010660396606 L 515.0002448362325 200.00048967246482 L 525.8048000622184 201.60960012443692 L 538.1136956327892 206.22739126557858 L 551.7833756043208 213.5667512086415 L 566.5856770499892 223.17135409997826 L 582.2220161254718 234.44403225094362 L 598.34195256622 246.68390513243997 L 614.5649783657783 259.1299567315567 L 630.5041759206661 271.00835184133206 L 645.790274692956 281.5805493859119 L 660.0946106637905 290.18922132758104 L 673.1495610702157 296.29912214043134 L 684.7651838923717 299.53036778474353 L 694.841027528319 299.68205505663815 L 703.3723763881171 296.7447527762341 L 710.4505440863674 290.9010881727347 " fill="none" stroke="blue" stroke-width="2" />
<text x="600" y="200" font-family="Arial, sans-serif" font-size="20" fill="red" text-anchor="middle" font-weight="normal" >E-Field (Red)</text>
<text x="600" y="300" font-family="Arial, sans-serif" font-size="20" fill="blue" text-anchor="middle" font-weight="normal" >B-Field (Blue)</text>
</svg>