<svg xmlns="http://www.w3.org/2000/svg" viewBox="0 0 800 500">
<defs>

        <marker id="arrowhead" markerWidth="10" markerHeight="7" refX="9" refY="3.5" orient="auto">
            <polygon points="0 0, 10 3.5, 0 7" fill="#333" />
        </marker>
        <marker id="arrowhead_red" markerWidth="10" markerHeight="7" refX="9" refY="3.5" orient="auto">
            <polygon points="0 0, 10 3.5, 0 7" fill="#d32f2f" />
        </marker>
        <marker id="arrowhead_blue" markerWidth="10" markerHeight="7" refX="9" refY="3.5" orient="auto">
            <polygon points="0 0, 10 3.5, 0 7" fill="#1976D2" />
        </marker>
        
</defs>
<rect width="100%" height="100%" fill="#fff" />
<line x1="100" y1="200" x2="700" y2="200" stroke="#333" stroke-width="2"   />
<text x="100" y="220" font-family="Arial, sans-serif" font-size="20" fill="#333" text-anchor="middle" font-weight="normal" >A</text>
<text x="700" y="220" font-family="Arial, sans-serif" font-size="20" fill="#333" text-anchor="middle" font-weight="normal" >B</text>
<line x1="100" y1="200" x2="100" y2="100" stroke="#333" stroke-width="2"   />
<line x1="700" y1="200" x2="700" y2="100" stroke="#333" stroke-width="2"   />
<line x1="400" y1="80" x2="400" y2="95" stroke="#333" stroke-width="2"   />
<line x1="385" y1="95" x2="415" y2="95" stroke="#333" stroke-width="3"   />
<line x1="393" y1="105" x2="407" y2="105" stroke="#333" stroke-width="3"   />
<line x1="400" y1="105" x2="400" y2="120" stroke="#333" stroke-width="2"   />
<text x="425" y="100" font-family="Arial, sans-serif" font-size="16" fill="#333" text-anchor="middle" font-weight="normal" >Ep</text>
<line x1="100" y1="200" x2="100" y2="300" stroke="#333" stroke-width="2"   />
<line x1="200" y1="280" x2="200" y2="295" stroke="#333" stroke-width="2"   />
<line x1="185" y1="295" x2="215" y2="295" stroke="#333" stroke-width="3"   />
<line x1="193" y1="305" x2="207" y2="305" stroke="#333" stroke-width="3"   />
<line x1="200" y1="305" x2="200" y2="320" stroke="#333" stroke-width="2"   />
<text x="225" y="300" font-family="Arial, sans-serif" font-size="16" fill="#333" text-anchor="middle" font-weight="normal" >E</text>
<circle cx="300" cy="300" r="15" fill="none" stroke="#333" stroke-width="2" />
<text x="300" y="305" font-family="Arial, sans-serif" font-size="20" fill="#333" text-anchor="middle" font-weight="normal" >G</text>
<line x1="315" y1="300" x2="450" y2="200" stroke="black" stroke-width="2"  marker-end="url(#arrowhead)" />
<text x="450" y="190" font-family="Arial, sans-serif" font-size="20" fill="#333" text-anchor="middle" font-weight="normal" >J</text>
</svg>