<svg xmlns="http://www.w3.org/2000/svg" viewBox="0 0 800 500">
<defs>

        <marker id="arrowhead" markerWidth="10" markerHeight="7" refX="9" refY="3.5" orient="auto">
            <polygon points="0 0, 10 3.5, 0 7" fill="#333" />
        </marker>
        <marker id="arrowhead_red" markerWidth="10" markerHeight="7" refX="9" refY="3.5" orient="auto">
            <polygon points="0 0, 10 3.5, 0 7" fill="#d32f2f" />
        </marker>
        <marker id="arrowhead_blue" markerWidth="10" markerHeight="7" refX="9" refY="3.5" orient="auto">
            <polygon points="0 0, 10 3.5, 0 7" fill="#1976D2" />
        </marker>
        
</defs>
<rect width="100%" height="100%" fill="#fff" />
<rect x="350" y="150" width="100" height="200" fill="none" stroke="#555" stroke-width="5" />
<path d="M 350 180 C 300 180 300 220 350 220 M 350 230 C 300 230 300 270 350 270" fill="none" stroke="red" stroke-width="2" />
<path d="M 450 170 C 500 170 500 200 450 200 M 450 210 C 500 210 500 240 450 240" fill="none" stroke="blue" stroke-width="2" />
<text x="250" y="250" font-family="Arial, sans-serif" font-size="20" fill="#333" text-anchor="middle" font-weight="normal" >Primary (Np)</text>
<text x="550" y="250" font-family="Arial, sans-serif" font-size="20" fill="#333" text-anchor="middle" font-weight="normal" >Secondary (Ns)</text>
</svg>