<svg xmlns="http://www.w3.org/2000/svg" viewBox="0 0 800 500">
<defs>

        <marker id="arrowhead" markerWidth="10" markerHeight="7" refX="9" refY="3.5" orient="auto">
            <polygon points="0 0, 10 3.5, 0 7" fill="#333" />
        </marker>
        <marker id="arrowhead_red" markerWidth="10" markerHeight="7" refX="9" refY="3.5" orient="auto">
            <polygon points="0 0, 10 3.5, 0 7" fill="#d32f2f" />
        </marker>
        <marker id="arrowhead_blue" markerWidth="10" markerHeight="7" refX="9" refY="3.5" orient="auto">
            <polygon points="0 0, 10 3.5, 0 7" fill="#1976D2" />
        </marker>
        
</defs>
<rect width="100%" height="100%" fill="#fff" />
<path d="M 300 100 L 340.0 100.0 L 352.0 110.0 L 364.0 90.0 L 376.0 110.0 L 388.0 90.0 L 400.0 110.0 L 412.0 90.0 L 424.0 110.0 L 436.0 90.0 L 448.0 110.0 L 460.0 90.0 L 500 100" fill="none" stroke="#333" stroke-width="2" />
<text x="400.0" y="80.0" font-family="Arial, sans-serif" font-size="18" fill="#333" text-anchor="middle" font-weight="normal" >R</text>
<line x1="400" y1="280" x2="400" y2="295" stroke="#333" stroke-width="2"   />
<line x1="385" y1="295" x2="415" y2="295" stroke="#333" stroke-width="3"   />
<line x1="393" y1="305" x2="407" y2="305" stroke="#333" stroke-width="3"   />
<line x1="400" y1="305" x2="400" y2="320" stroke="#333" stroke-width="2"   />
<text x="425" y="300" font-family="Arial, sans-serif" font-size="16" fill="#333" text-anchor="middle" font-weight="normal" >V</text>
<line x1="300" y1="100" x2="200" y2="100" stroke="#333" stroke-width="2"   />
<line x1="200" y1="100" x2="200" y2="300" stroke="#333" stroke-width="2"   />
<line x1="200" y1="300" x2="400" y2="300" stroke="#333" stroke-width="2"   />
<line x1="500" y1="100" x2="600" y2="100" stroke="#333" stroke-width="2"   />
<line x1="600" y1="100" x2="600" y2="300" stroke="#333" stroke-width="2"   />
<line x1="600" y1="300" x2="400" y2="300" stroke="#333" stroke-width="2"   />
</svg>